<svg xmlns="http://www.w3.org/2000/svg" width="64" height="55" viewBox="0 0 64 55" fill="none">
  <path d="M63.3735 27.7383C63.3735 40.9399 52.2511 52.003 37.4802 54.2364V36.1607H44.4062H44.8249L44.8984 35.7485L46.3122 27.8262L46.4171 27.2383H45.82H37.4802V22.5941C37.4802 21.6018 37.762 20.6754 38.4451 19.996C39.127 19.318 40.281 18.8141 42.1738 18.8141H46.194H46.694V18.3141V11.5731V11.1411L46.2665 11.0784L46.194 11.5731C46.2665 11.0784 46.2665 11.0784 46.2664 11.0784L46.2662 11.0783L46.2656 11.0782L46.2633 11.0779L46.2549 11.0767L46.2225 11.0721C46.1942 11.068 46.1525 11.0622 46.0984 11.0547C45.9903 11.0399 45.8324 11.0188 45.6323 10.9935C45.2322 10.9429 44.6627 10.8755 43.9836 10.8081C42.6272 10.6735 40.8253 10.5382 39.0584 10.5382C35.3352 10.5382 32.1969 11.5079 29.9817 13.4147C27.7562 15.3303 26.5198 18.1428 26.5198 21.7001V27.2383H18.9229H18.4229V27.7383V35.6607V36.1607H18.9229H26.5198V54.2364C11.7489 52.003 0.626526 40.9399 0.626526 27.7383C0.626526 12.9429 14.5951 0.832123 32 0.832123C49.4049 0.832123 63.3735 12.9429 63.3735 27.7383Z" fill="#F5F5F5" stroke="#F5F5F5"/>
</svg>